PathFileType	4	(X/Y/Z)	S:\OneDrive - The University of Tokyo\ìåëÂéˆã∆\ÉoÉCÉÅÉJ\ë™íË\hirabayashi_2\Trimmed\Trimmed_BarL1Hirabayashi1.trc
DataRate	CameraRate	NumFrames	NumMarkers	Units	OrigDataRate	OrigDataStartFrame	OrigNumFrames
200.00	200.00	       19	12	mm	200.00	166	       265
Frame#	Time	BarR0			BarR50			BarR100			BarR130			BarR180			BarR230			BarL0			BarL50			BarL100			BarL130			BarL180			BarL230			
		X1	Y1	Z1	X2	Y2	Z2	X3	Y3	Z3	X4	Y4	Z4	X5	Y5	Z5	X6	Y6	Z6	X7	Y7	Z7	X8	Y8	Z8	X9	Y9	Z9	X10	Y10	Z10	X11	Y11	Z11	X12	Y12	Z12	

166	0.825	-576.82397	2755.35498	1663.88538	-604.26556	2305.92261	1662.50256	-637.67035	1851.73108	1661.83081	-661.20374	1349.24841	1661.64734	-690.39484	902.43085	1662.29602	-714.03381	454.48401	1663.81030	-1112.27307	2805.48047	1664.54041	-1139.28284	2354.33643	1648.55920	-1169.25110	1904.56702	1638.31677	-1197.03247	1404.10193	1637.37427	-1224.31348	953.36755	1648.80835	-1242.50122	507.50528	1667.10181	
167	0.830	-576.31281	2755.31128	1664.36475	-605.64575	2306.28345	1662.15833	-637.71106	1851.73120	1661.83240	-661.28601	1349.24976	1661.65234	-690.43524	902.42200	1662.31567	-714.06006	454.47220	1663.81799	-1112.25269	2805.49854	1664.55444	-1139.24512	2354.34033	1648.56372	-1169.21973	1904.58691	1638.29333	-1196.97742	1404.11670	1637.39636	-1224.30103	953.38757	1648.78491	-1242.50378	507.48294	1667.11084	
168	0.835	-576.84137	2755.36353	1663.87488	-604.36224	2305.94897	1662.51746	-637.75366	1851.73816	1661.85205	-661.35138	1349.24512	1661.65271	-690.45410	902.44196	1662.29858	-714.05603	454.48212	1663.81323	-1112.24841	2805.45581	1664.53711	-1139.20947	2354.33447	1648.54956	-1169.17957	1904.54944	1638.28479	-1196.95496	1404.14941	1637.34241	-1224.25757	953.38611	1648.77039	-1242.52563	507.47186	1667.08777	
169	0.840	-576.87048	2755.36597	1663.87671	-604.38782	2305.97241	1662.50525	-637.78662	1851.75012	1661.83508	-661.37146	1349.26770	1661.65942	-690.46368	902.43854	1662.30383	-714.06580	454.45871	1663.80444	-1112.23486	2805.45044	1664.54773	-1139.19324	2354.29736	1648.53979	-1169.19678	1904.62036	1638.26184	-1196.93640	1404.13843	1637.32751	-1224.23254	953.38135	1648.77002	-1242.50793	507.48376	1667.08594	
170	0.845	-576.87732	2755.36011	1663.86987	-604.41107	2305.95264	1662.52026	-637.82678	1851.72839	1661.82068	-661.42810	1349.21680	1661.64136	-690.50208	902.43225	1662.28357	-714.08936	454.47647	1663.81592	-1112.24744	2805.44165	1664.55103	-1139.17175	2354.28491	1648.51965	-1169.16687	1904.53906	1638.24475	-1196.92151	1404.10461	1637.29614	-1224.21436	953.35620	1648.72717	-1242.44897	507.43948	1667.09680	
171	0.850	-576.86639	2755.33423	1663.86926	-604.37274	2305.89746	1662.50842	-637.82062	1851.64856	1661.83667	-661.41980	1349.24695	1661.62720	-690.50861	902.42505	1662.29065	-714.12103	454.47839	1663.81384	-1112.23657	2805.44385	1664.54297	-1139.18066	2354.26880	1648.52087	-1169.16016	1904.56445	1638.20386	-1196.89282	1404.11316	1637.26880	-1224.18445	953.36658	1648.71252	-1242.44141	507.42960	1667.08569	
172	0.855	-576.88605	2755.32544	1663.86292	-604.42731	2305.92700	1662.50098	-637.83099	1851.68628	1661.84875	-661.43658	1349.21387	1661.61267	-690.52277	902.38269	1662.28943	-714.13074	454.43488	1663.81494	-1112.23181	2805.41040	1664.55811	-1139.16113	2354.28760	1648.49170	-1169.12756	1904.50061	1638.20935	-1196.86963	1404.05811	1637.19629	-1224.17432	953.35992	1648.68335	-1242.40552	507.41995	1667.07251	
173	0.860	-576.31927	2755.24951	1664.35107	-605.69611	2306.18481	1662.12634	-637.82568	1851.70923	1661.81348	-661.39575	1349.18872	1661.62268	-690.49274	902.41467	1662.28247	-714.12964	454.43256	1663.80615	-1112.23828	2805.40454	1664.55200	-1139.17175	2354.26929	1648.47253	-1169.10461	1904.46594	1638.17554	-1196.87012	1404.10474	1637.16687	-1224.17993	953.37384	1648.66016	-1242.41479	507.42773	1667.07483	
174	0.865	-576.85864	2755.30737	1663.88989	-604.36450	2305.90308	1662.49561	-637.78571	1851.65759	1661.82556	-661.37878	1349.16113	1661.62476	-690.50000	902.38690	1662.26978	-714.14398	454.45221	1663.81567	-1112.23486	2805.42749	1664.55115	-1139.19250	2354.28247	1648.46130	-1169.20032	1904.53381	1638.14111	-1196.87012	1404.10901	1637.14343	-1224.19299	953.36816	1648.65332	-1242.39441	507.42676	1667.07520	
175	0.870	-576.29926	2755.24609	1664.34692	-605.69250	2306.19751	1662.11438	-637.74603	1851.66394	1661.85107	-661.31586	1349.16895	1661.60559	-690.44873	902.41394	1662.28784	-714.10535	454.40778	1663.80200	-1112.25696	2805.39648	1664.53491	-1139.21338	2354.28247	1648.45886	-1169.15918	1904.51074	1638.15027	-1196.87244	1404.02417	1637.13892	-1224.19678	953.38770	1648.64478	-1242.40320	507.45377	1667.07483	
176	0.875	-576.82495	2755.29248	1663.85229	-604.31183	2305.89331	1662.48926	-637.70758	1851.67078	1661.80542	-661.27509	1349.18799	1661.62305	-690.45361	902.41150	1662.27002	-714.07330	454.42380	1663.80640	-1112.24097	2805.40234	1664.54297	-1139.21960	2354.28784	1648.45935	-1169.14233	1904.47217	1638.14685	-1196.91663	1404.11816	1637.13660	-1224.20203	953.40094	1648.64221	-1242.42712	507.45889	1667.06287	
177	0.880	-576.29529	2755.25488	1664.34082	-605.63086	2306.22192	1662.12329	-637.71008	1851.68713	1661.81335	-661.24469	1349.18958	1661.59680	-690.41046	902.39331	1662.27771	-714.07050	454.42072	1663.80701	-1112.23987	2805.44629	1664.55750	-1139.22632	2354.29688	1648.47131	-1169.17786	1904.49048	1638.15808	-1196.91064	1404.14392	1637.15295	-1224.20959	953.39594	1648.64990	-1242.44104	507.46393	1667.06885	
178	0.885	-576.82385	2755.33911	1663.85986	-604.32880	2305.91113	1662.48572	-637.70941	1851.71448	1661.81860	-661.22870	1349.19495	1661.62476	-690.42041	902.42029	1662.28564	-714.06635	454.43680	1663.80444	-1112.24219	2805.44019	1664.54004	-1139.21057	2354.30151	1648.49402	-1169.22205	1904.60461	1638.18213	-1196.91821	1404.11462	1637.18530	-1224.24768	953.37671	1648.67651	-1242.45959	507.49924	1667.08142	
179	0.890	-576.82251	2755.35425	1663.86841	-604.28040	2305.92065	1662.51038	-637.65930	1851.71289	1661.84631	-661.22650	1349.23096	1661.64368	-690.39648	902.42743	1662.28784	-714.07440	454.45862	1663.80127	-1112.25354	2805.46680	1664.54187	-1139.20117	2354.30762	1648.52478	-1169.15698	1904.51099	1638.23022	-1196.91882	1404.13977	1637.24255	-1224.23169	953.41418	1648.71167	-1242.47534	507.46780	1667.07959	
180	0.895	-576.29974	2755.31104	1664.35339	-605.65204	2306.28638	1662.13733	-637.68866	1851.70776	1661.83923	-661.25360	1349.27820	1661.64258	-690.40186	902.46832	1662.30591	-714.04175	454.47552	1663.81580	-1112.24390	2805.48486	1664.56055	-1139.17334	2354.32397	1648.54199	-1169.15100	1904.58423	1638.27893	-1196.91907	1404.14221	1637.29126	-1224.22070	953.39893	1648.77185	-1242.48865	507.48392	1667.09485	
181	0.900	-576.85181	2755.35815	1663.87024	-604.34039	2305.97632	1662.51672	-637.70343	1851.73450	1661.84534	-661.26392	1349.29028	1661.65686	-690.40808	902.46515	1662.29333	-714.05499	454.47119	1663.81201	-1112.24146	2805.48926	1664.54736	-1139.18652	2354.32739	1648.57544	-1169.18860	1904.67700	1638.31409	-1196.87085	1404.16187	1637.37598	-1224.22852	953.41425	1648.82593	-1242.52014	507.49768	1667.09302	
182	0.905	-576.31348	2755.30664	1664.36426	-605.68762	2306.29761	1662.15710	-637.74847	1851.73975	1661.82629	-661.30927	1349.24927	1661.64795	-690.43445	902.46918	1662.29260	-714.05414	454.49063	1663.80151	-1112.24194	2805.51709	1664.53259	-1139.17114	2354.34277	1648.59204	-1169.10303	1904.62097	1638.36401	-1196.85974	1404.18738	1637.44397	-1224.22412	953.37964	1648.86121	-1242.50378	507.48358	1667.08252	
183	0.910	-576.84485	2755.38135	1663.87390	-604.38745	2305.96460	1662.51782	-637.76978	1851.71680	1661.85754	-661.34161	1349.30481	1661.63867	-690.44995	902.43707	1662.30994	-714.04333	454.47931	1663.82019	-1112.22693	2805.49951	1664.55676	-1139.11780	2354.31323	1648.63770	-1169.05286	1904.55566	1638.76208	-1196.82141	1404.18848	1637.49109	-1224.19580	953.40320	1648.87891	-1242.50781	507.48764	1667.08899	
184	0.915	-576.83722	2755.36890	1663.86377	-604.37878	2305.96997	1662.52014	-637.77460	1851.71973	1661.84778	-661.37128	1349.27136	1661.62109	-690.47797	902.43695	1662.31335	-714.09180	454.49341	1663.81567	-1112.23657	2805.50293	1664.54529	-1139.14075	2354.34521	1648.64441	-1169.02856	1904.54248	1638.81372	-1196.76477	1404.21216	1637.53198	-1224.17627	953.38409	1648.92578	-1242.46985	507.46313	1667.07813	
